<svg width="226" height="214" viewBox="0 0 226 214" fill="none" xmlns="http://www.w3.org/2000/svg">
<path d="M79.3077 101.51C80.6204 103.275 83.3551 105.887 84.5584 106.973C80.0953 107.897 78.5419 110.23 78.3232 111.281C93.9003 119.097 106.692 116.919 111.14 114.853C99.0635 127.04 78.6148 121.542 69.9001 117.269C65.087 114.832 55.7159 112.261 51.632 111.281C55.0449 110.44 58.8882 107.288 60.3832 105.817C63.4461 101.279 74.2757 101.054 79.3077 101.51Z" fill="url(#paint0_linear)"/>
<path d="M146.255 101.509C144.942 103.268 142.207 105.872 141.004 106.953C145.467 107.875 147.02 110.199 147.239 111.246C131.662 119.035 118.87 116.865 114.422 114.806C126.499 126.95 146.947 121.471 155.662 117.214C160.475 114.785 169.846 112.223 173.93 111.246C170.517 110.408 166.674 107.267 165.179 105.802C162.116 101.279 151.286 101.056 146.255 101.509Z" fill="url(#paint1_linear)"/>
<path d="M114.203 112.935C126.63 117.625 136.446 112.027 139.801 108.642C141.186 107.205 144.176 104.083 145.051 103.093C148.814 99.2405 151.578 92.2746 152.49 89.2734C149.514 87.0957 138.269 86.9701 133.018 87.1795C132.231 93.3775 130.357 96.4625 129.518 97.2304C131.968 96.7278 134.404 97.4397 135.316 97.8585C128.14 111.511 118.251 113.598 114.203 112.935Z" fill="url(#paint2_linear)"/>
<path d="M110.703 112.951C98.276 117.644 88.46 112.043 85.1055 108.656C83.7199 107.218 80.7299 104.093 79.8547 103.103C76.0917 99.248 73.3279 92.2777 72.4162 89.2746C75.3916 87.0957 86.6369 86.9698 91.8876 87.1794C92.6753 93.3812 94.5495 96.4683 95.3881 97.2366C92.9378 96.7336 90.5021 97.4462 89.5905 97.8652C96.7665 111.526 106.655 113.614 110.703 112.951Z" fill="url(#paint3_linear)"/>
<path d="M92.1458 78.1037C93.9836 69.9792 102.538 64.8072 106.585 63.2368C106.585 84.0086 111.763 90.4579 114.352 91.0861C108.751 63.6974 114.498 47.2879 118.071 42.5068C117.109 54.2329 124.452 64.8422 128.245 68.681C132.985 73.9856 139.534 87.5055 127.807 99.1478C116.08 110.79 102.793 103.999 97.6153 99.1478C90.4393 94.6249 90.9788 83.2339 92.1458 78.1037Z" fill="#F38224" stroke="#FFA843"/>
<path d="M63.8837 133.593H73.7288M73.7288 133.593V135.582M73.7288 133.593H78.2138M104.249 133.593H101.295M101.295 133.593H95.7162M101.295 133.593V137.781M73.7288 135.582V142.597M73.7288 135.582H65.9621C65.3786 135.931 64.5619 136.818 65.9621 137.571H69.7907C70.7752 137.99 72.1536 139.205 69.7907 140.712C68.5509 141.061 64.7588 140.922 64.9776 140.189V139.142C64.9776 139.037 67.0341 139.163 68.2593 142.597M78.2138 133.593V142.597M78.2138 133.593H90.1373M90.1373 133.593V136.524M90.1373 133.593H95.7162M90.1373 136.524V142.597M90.1373 136.524H84.1208M95.7162 133.593C95.7162 133.593 95.7162 138.828 95.7162 139.351C95.7162 140.248 93.0291 137.781 93.966 137.781C94.6223 137.781 101.295 137.781 101.295 137.781M84.1208 136.524C84.1208 136.524 83.1208 136.524 82.48 136.524C81.4955 136.524 84.1208 139.142 84.1208 139.142C84.2302 139.351 84.9085 137.278 84.1208 136.524ZM101.295 137.781V142.597M101.295 142.597C100.07 141.676 99.2167 142.632 98.5603 143.644M101.295 142.597C102.28 143.539 104.249 145.528 105.233 146.575L101.295 142.597ZM119.563 133.593H123.283M123.283 133.593V137.467M123.283 133.593H128.861M161.132 133.593H158.616M158.616 133.593H152.49M158.616 133.593V137.676M123.283 137.467V138.095V142.597V137.467ZM123.283 137.467H119.016M128.861 133.593H135.425M128.861 133.593V136.42C128.861 136.42 128.861 138.618 128.861 139.247C128.861 140.174 126.455 137.676 127.002 137.676C127.439 137.676 135.425 137.676 135.425 137.676M112.89 133.593C112.89 133.593 116.719 133.593 117.704 133.593C118.688 133.593 119.804 135.268 117.704 136.524L114.422 136.629C117.12 136.629 121.642 137.153 117.704 140.817C116.427 141.55 113.262 141.55 110.812 136.106M135.425 133.593V137.676M135.425 133.593H152.49M135.425 137.676V141.655M135.425 141.655V142.597M135.425 141.655C133.2 141.655 129.19 142.304 130.94 144.9C131.523 145.528 133.806 146.366 138.269 144.691M152.49 133.593C152.49 133.593 152.49 138.409 152.49 139.247C152.49 140.205 149.864 137.676 150.521 137.676C151.177 137.676 158.616 137.676 158.616 137.676M158.616 137.676V142.597M158.616 142.597C157.565 141.508 155.625 143.26 154.787 144.272M158.616 142.597L161.569 146.261" stroke="white"/>
<path d="M146.473 135.896H140.129C139.035 135.792 138.072 137.781 142.098 142.806M146.473 133.593V135.896V133.593ZM146.473 142.911V135.896V142.911Z" stroke="white"/>
<path d="M61.8306 192.372C61.8306 194.856 61.5615 197.009 61.023 198.832C60.5039 200.653 59.7635 202.264 58.802 203.662C57.8599 205.079 56.735 206.34 55.4275 207.444C54.1391 208.549 52.7258 209.634 51.1876 210.702L50.6684 210.011C51.9951 208.852 53.043 207.647 53.8123 206.395C54.6005 205.144 55.1967 203.8 55.6006 202.365C56.0235 200.948 56.2928 199.42 56.4081 197.782C56.5234 196.126 56.5812 194.322 56.5812 192.372V169.321C56.5812 167.757 56.5619 166.395 56.5234 165.235C56.4851 164.058 56.4274 163.045 56.3503 162.199C56.2735 161.334 56.1773 160.616 56.062 160.046C55.9659 159.475 55.8601 158.997 55.7448 158.61V158.5H62.667V158.61C62.5517 158.997 62.4364 159.475 62.3208 160.046C62.2248 160.616 62.1382 161.334 62.0614 162.199C61.9844 163.045 61.9268 164.058 61.8883 165.235C61.8498 166.395 61.8306 167.757 61.8306 169.321V192.372ZM70.6855 197.976C70.8008 197.589 70.9067 197.111 71.0027 196.54C71.118 195.97 71.2143 195.261 71.2911 194.415C71.3681 193.568 71.4258 192.565 71.4641 191.406C71.5026 190.228 71.5219 188.857 71.5219 187.292V169.321C71.5219 167.757 71.5026 166.395 71.4641 165.235C71.4258 164.058 71.3681 163.045 71.2911 162.199C71.2143 161.334 71.118 160.616 71.0027 160.046C70.9067 159.475 70.8008 158.997 70.6855 158.61V158.5H77.6077V158.61C77.4924 158.997 77.3771 159.475 77.2616 160.046C77.1655 160.616 77.0789 161.334 77.0021 162.199C76.9443 163.045 76.8868 164.058 76.829 165.235C76.7905 166.395 76.7713 167.757 76.7713 169.321V175.477L93.6156 162.309C95.5002 160.837 96.4423 159.567 96.4423 158.5H104.547V158.61C103.413 158.868 102.259 159.365 101.086 160.101C99.9325 160.818 98.7018 161.702 97.3942 162.751L82.5112 174.677L100.423 193.504C101.173 194.24 101.807 194.856 102.326 195.353C102.865 195.832 103.336 196.237 103.74 196.568C104.144 196.881 104.509 197.148 104.836 197.368C105.182 197.571 105.538 197.773 105.903 197.976V198.086H97.4519C97.3749 197.92 97.2404 197.709 97.0481 197.451C96.875 197.193 96.6634 196.927 96.4136 196.651C96.1828 196.375 95.9231 196.089 95.6347 195.795C95.3654 195.5 95.1059 195.224 94.8559 194.967L76.7713 175.974V187.292C76.7713 188.857 76.7905 190.228 76.829 191.406C76.8868 192.565 76.9443 193.568 77.0021 194.415C77.0789 195.261 77.1655 195.97 77.2616 196.54C77.3771 197.111 77.4924 197.589 77.6077 197.976V198.086H70.6855V197.976ZM114.96 195.657C117.229 195.657 119.315 195.565 121.218 195.381C123.122 195.197 124.785 194.985 126.208 194.746C127.862 194.488 129.372 194.184 130.737 193.835L129.9 198.307C129.669 198.289 129.323 198.27 128.862 198.252C128.401 198.233 127.881 198.215 127.304 198.196C126.747 198.178 126.151 198.16 125.516 198.141C124.901 198.141 124.314 198.132 123.757 198.114C123.199 198.114 122.699 198.105 122.257 198.086C121.834 198.086 121.526 198.086 121.334 198.086H108.874V197.976C108.989 197.589 109.095 197.111 109.191 196.54C109.306 195.97 109.403 195.261 109.479 194.415C109.556 193.568 109.614 192.565 109.652 191.406C109.691 190.228 109.71 188.857 109.71 187.292V169.321C109.71 167.757 109.691 166.395 109.652 165.235C109.614 164.058 109.556 163.045 109.479 162.199C109.403 161.334 109.306 160.616 109.191 160.046C109.095 159.475 108.989 158.997 108.874 158.61V158.5H115.796V158.61C115.681 158.997 115.565 159.475 115.45 160.046C115.354 160.616 115.267 161.334 115.19 162.199C115.133 163.045 115.075 164.058 115.017 165.235C114.979 166.395 114.96 167.757 114.96 169.321V195.657ZM165.637 169.321C165.637 167.757 165.618 166.395 165.579 165.235C165.541 164.058 165.483 163.045 165.406 162.199C165.329 161.334 165.243 160.616 165.147 160.046C165.05 159.475 164.945 158.997 164.829 158.61V158.5H169.963V158.61C169.848 158.997 169.733 159.475 169.617 160.046C169.521 160.616 169.435 161.334 169.358 162.199C169.3 163.045 169.242 164.058 169.185 165.235C169.146 166.395 169.127 167.757 169.127 169.321V184.228C169.127 186.86 168.733 189.105 167.944 190.964C167.156 192.823 166.06 194.35 164.656 195.546C163.252 196.724 161.57 197.58 159.609 198.114C157.647 198.666 155.503 198.942 153.177 198.942C150.85 198.942 148.677 198.684 146.658 198.169C144.658 197.654 142.909 196.825 141.409 195.684C139.928 194.525 138.765 193.034 137.919 191.212C137.073 189.372 136.65 187.136 136.65 184.504V169.321C136.65 167.757 136.63 166.395 136.592 165.235C136.553 164.058 136.496 163.045 136.419 162.199C136.342 161.334 136.246 160.616 136.131 160.046C136.034 159.475 135.929 158.997 135.813 158.61V158.5H142.735V158.61C142.62 158.997 142.505 159.475 142.389 160.046C142.293 160.616 142.207 161.334 142.13 162.199C142.053 163.045 141.995 164.058 141.957 165.235C141.918 166.395 141.899 167.757 141.899 169.321V184.808C141.899 186.998 142.236 188.811 142.909 190.246C143.601 191.663 144.505 192.795 145.62 193.641C146.735 194.47 148.004 195.049 149.427 195.381C150.85 195.712 152.302 195.878 153.782 195.878C155.263 195.878 156.715 195.712 158.138 195.381C159.561 195.049 160.82 194.47 161.916 193.641C163.032 192.795 163.926 191.663 164.599 190.246C165.291 188.811 165.637 186.998 165.637 184.808V169.321Z" fill="white"/>
<path d="M19.3199 112.1C20.2799 112.051 21.1174 112.103 21.8322 112.257C22.5466 112.404 23.1837 112.634 23.7435 112.946C24.31 113.251 24.8197 113.624 25.2726 114.065C25.725 114.498 26.1729 114.977 26.6164 115.5L26.3602 115.697C25.8854 115.251 25.3986 114.904 24.8996 114.657C24.4001 114.403 23.8691 114.219 23.3064 114.105C22.7503 113.984 22.1545 113.919 21.5194 113.911C20.8771 113.904 20.179 113.919 19.4252 113.959L10.5183 114.421C9.91388 114.453 9.38804 114.487 8.94078 114.524C8.48644 114.561 8.09647 114.601 7.7709 114.646C7.4382 114.69 7.1628 114.739 6.94466 114.791C6.72614 114.836 6.54337 114.883 6.39635 114.932L6.35369 114.934L6.21478 112.484L6.25744 112.482C6.4091 112.515 6.59631 112.546 6.81908 112.576C7.04144 112.598 7.32052 112.614 7.6563 112.624C7.98496 112.634 8.37725 112.635 8.83314 112.625C9.28193 112.615 9.80855 112.594 10.413 112.563L19.3199 112.1Z" fill="white"/>
<path d="M21.2332 108.003C21.0866 107.954 20.9042 107.905 20.6861 107.858C20.4684 107.804 20.197 107.753 19.8718 107.707C19.5467 107.66 19.1606 107.616 18.7137 107.576C18.2597 107.535 17.7306 107.496 17.1265 107.46L10.1857 107.043C9.58156 107.007 9.05513 106.982 8.60644 106.969C8.15065 106.955 7.7584 106.952 7.42964 106.96C7.09381 106.967 6.81437 106.985 6.59136 107.012C6.36878 107.033 6.18152 107.059 6.0296 107.091L5.98694 107.089L6.14739 104.64L6.19003 104.642C6.33662 104.692 6.51875 104.744 6.73641 104.798C6.95454 104.845 7.22972 104.892 7.562 104.94C7.88764 104.98 8.27722 105.023 8.73079 105.071C9.1777 105.111 9.70323 105.15 10.3074 105.186L12.6849 105.329L7.98972 99.0644C7.46476 98.3636 6.99617 98.0009 6.58392 97.976L6.77177 95.1088L6.81441 95.1113C6.88761 95.5185 7.05279 95.9382 7.30992 96.3704C7.56038 96.7952 7.87304 97.2511 8.24788 97.7379L12.5088 103.28L20.1952 97.3792C20.4969 97.1309 20.7497 96.9206 20.9537 96.7485C21.1509 96.5693 21.3182 96.4118 21.4555 96.2768C21.5857 96.1411 21.6972 96.018 21.7901 95.9076C21.8763 95.7897 21.9628 95.6687 22.0495 95.5441L22.0921 95.5466L21.8961 98.5365C21.8304 98.5598 21.7456 98.6025 21.6416 98.6645C21.5381 98.7198 21.4301 98.7884 21.3177 98.8705C21.2057 98.9457 21.0896 99.0309 20.9691 99.1262C20.8492 99.2146 20.7366 99.3 20.6312 99.3825L12.8769 105.34L17.2481 105.603C17.8523 105.639 18.3823 105.664 18.8381 105.678C19.2872 105.684 19.6759 105.687 20.0042 105.686C20.3329 105.679 20.6086 105.664 20.8312 105.644C21.0542 105.616 21.2417 105.586 21.3936 105.554L21.4363 105.557L21.2758 108.006L21.2332 108.003Z" fill="white"/>
<path d="M23.904 84.3503C24.1409 83.5787 24.3245 82.8594 24.4549 82.1927C24.5853 81.5262 24.6804 80.9383 24.7402 80.4294C24.817 79.8402 24.8618 79.2949 24.8747 78.7943L26.4478 79.5456C26.4167 79.6222 26.3738 79.738 26.3189 79.893C26.2638 80.0479 26.2027 80.2226 26.1358 80.4169C26.0706 80.6047 26.0017 80.8055 25.9286 81.0193C25.8643 81.2287 25.7997 81.4272 25.7345 81.6148C25.6763 81.8045 25.6208 81.9735 25.5678 82.1222C25.5236 82.266 25.4915 82.3705 25.4713 82.436L24.1705 86.6738L24.1296 86.6622C23.9981 86.5827 23.8316 86.4968 23.6296 86.4045C23.4299 86.3056 23.177 86.1991 22.8707 86.0845C22.5644 85.97 22.198 85.8456 21.7715 85.7114C21.3382 85.5755 20.8311 85.4258 20.2503 85.2624L13.5779 83.3863C12.9971 83.2229 12.4895 83.0873 12.055 82.9794C11.6137 82.8695 11.2319 82.7834 10.9095 82.7212C10.5803 82.657 10.3038 82.6149 10.0799 82.5946C9.85807 82.5675 9.66937 82.5537 9.51384 82.5525L9.47284 82.541L10.1955 80.1867L10.2365 80.1983C10.368 80.2778 10.5336 80.367 10.7334 80.4659C10.9351 80.558 11.1926 80.6625 11.5057 80.7789C11.814 80.887 12.1838 81.0122 12.6151 81.1548C13.0415 81.2888 13.5452 81.4377 14.126 81.601L23.904 84.3503Z" fill="white"/>
<path d="M31.7601 67.5019L31.7211 67.4847C31.6949 67.4581 31.6507 67.4276 31.589 67.3928C31.5273 67.3583 31.4704 67.3296 31.4188 67.3068C31.2181 67.2186 30.9847 67.1497 30.7184 67.1001C30.4487 67.0417 30.0971 67.0069 29.6633 66.9962L26.4833 66.9596C26.3039 67.3009 26.0759 67.7595 25.7994 68.3355C25.5231 68.9116 25.2242 69.5341 24.903 70.2029C24.6683 70.6922 24.441 71.1661 24.2209 71.6245C24.0039 72.0765 23.8142 72.4882 23.6516 72.8595L25.7016 75.0545C25.8965 75.2528 26.1109 75.467 26.3452 75.6976C26.5796 75.9281 26.8421 76.1074 27.1335 76.2353C27.2175 76.2724 27.2917 76.2975 27.3558 76.3107C27.4135 76.3212 27.4551 76.3243 27.4805 76.3205L27.5194 76.3375L26.6097 78.2329L26.5708 78.2157C26.5015 78.0503 26.3514 77.8156 26.121 77.5118C25.8843 77.2052 25.5771 76.8488 25.1999 76.443L15.4169 65.6949L15.7736 64.9515L30.0575 65.1219C30.3922 65.1266 30.7219 65.1253 31.0468 65.118C31.368 65.1016 31.659 65.0834 31.9195 65.0629C32.1801 65.0426 32.4024 65.0202 32.5864 64.9961C32.7704 64.972 32.8894 64.953 32.943 64.9391L32.9819 64.9561L31.7601 67.5019ZM23.444 71.1366C23.6164 70.7775 23.7934 70.4089 23.9748 70.031C24.1496 69.6503 24.3233 69.2803 24.4957 68.9212C24.6646 68.5529 24.8293 68.2015 24.9897 67.8669C25.1439 67.5298 25.2831 67.2234 25.4073 66.9479L17.9901 66.8486L22.9625 72.14L23.444 71.1366Z" fill="white"/>
<path d="M34.1405 63.2397C34.0409 63.1254 33.9099 62.9945 33.7475 62.8475C33.5889 62.6949 33.3824 62.519 33.1275 62.3201C32.8729 62.1211 32.5639 61.895 32.2012 61.6422C31.8323 61.3855 31.3978 61.094 30.8973 60.768L25.1484 57.0226C24.648 56.6966 24.2083 56.4183 23.8296 56.188C23.4447 55.9539 23.1089 55.7598 22.8221 55.6059C22.5294 55.4482 22.2797 55.3267 22.0732 55.2415C21.8706 55.1508 21.6955 55.0822 21.5478 55.0355L21.5125 55.0124L22.9551 52.9838L22.9906 53.0069C23.0901 53.1212 23.2192 53.2548 23.3776 53.4074C23.5401 53.5546 23.7517 53.7295 24.0123 53.9324C24.2711 54.1256 24.5828 54.3535 24.9475 54.6158C25.3105 54.8688 25.7422 55.1584 26.2425 55.4844L28.2117 56.7674L27.5101 49.087C27.4318 48.2281 27.222 47.6872 26.8805 47.4648L28.5697 45.0899L28.6051 45.1127C28.4511 45.4991 28.3695 45.9407 28.3605 46.4378C28.3496 46.9254 28.3758 47.4701 28.4388 48.0719L29.1518 54.9186L38.9075 53.5938C39.2993 53.5274 39.6288 53.4698 39.8959 53.4212C40.1613 53.3632 40.3888 53.3096 40.579 53.2604C40.7634 53.2072 40.9248 53.1557 41.0636 53.1061C41.2005 53.0469 41.3394 52.9847 41.4803 52.92L41.5156 52.9428L39.7544 55.4193C39.6852 55.4073 39.5896 55.4027 39.4671 55.4053C39.3485 55.4023 39.219 55.4086 39.0788 55.4243C38.9423 55.4346 38.797 55.4511 38.6425 55.4741C38.4922 55.4917 38.35 55.5104 38.2155 55.5298L28.3708 56.8708L31.9914 59.2298C32.4917 59.5559 32.9343 59.8358 33.3192 60.0701C33.702 60.2948 34.035 60.487 34.3179 60.6466C34.6047 60.8005 34.8493 60.9228 35.0519 61.0134C35.2584 61.0984 35.4356 61.1644 35.5833 61.2113L35.6185 61.2341L34.1759 63.2627L34.1405 63.2397Z" fill="white"/>
<path d="M37.7509 38.7863L37.5926 38.9526C37.4333 38.8873 37.234 38.8334 36.9951 38.7909C36.7608 38.7434 36.5083 38.7355 36.2376 38.7667C35.9664 38.7884 35.6879 38.8634 35.4017 38.992C35.1203 39.1155 34.8477 39.3157 34.5839 39.5929C34.3487 39.8398 34.1796 40.0934 34.0763 40.3536C33.9728 40.6139 33.93 40.8715 33.9475 41.1265C33.9696 41.3763 34.0468 41.619 34.1794 41.8544C34.3117 42.0897 34.4964 42.3108 34.7331 42.5173C35.1122 42.8479 35.5712 43.064 36.1105 43.1654C36.6494 43.2573 37.2335 43.2965 37.8632 43.2831C38.4926 43.2694 39.1461 43.2309 39.8237 43.1671C40.501 43.1032 41.1676 43.076 41.8235 43.0854C42.4794 43.0948 43.1032 43.1733 43.6952 43.3207C44.2866 43.4585 44.8114 43.727 45.2693 44.1265C45.6115 44.4249 45.9012 44.7836 46.1381 45.2026C46.3748 45.6117 46.5173 46.0542 46.5656 46.5297C46.6137 47.0052 46.5472 47.5051 46.3661 48.0294C46.1795 48.5491 45.8417 49.0659 45.3522 49.5799C45.0788 49.867 44.7885 50.1164 44.4811 50.3279C44.1837 50.5387 43.8901 50.7207 43.6 50.8736C43.3097 51.0168 43.0332 51.1351 42.7704 51.2289C42.5127 51.3175 42.2915 51.3828 42.1069 51.4249L40.5275 49.729L40.7073 49.5402C41.0075 49.7005 41.3306 49.8163 41.677 49.888C42.018 49.9548 42.3617 49.9732 42.7081 49.9434C43.054 49.9039 43.3924 49.8117 43.7232 49.6666C44.0485 49.5171 44.3456 49.3012 44.6143 49.0192C44.8589 48.7623 45.0376 48.4986 45.1505 48.2281C45.263 47.9481 45.3177 47.6732 45.3148 47.4031C45.3065 47.1284 45.2383 46.866 45.1103 46.616C44.9869 46.3609 44.8068 46.1302 44.5701 45.9235C44.2384 45.6343 43.8779 45.426 43.4887 45.2985C43.094 45.1663 42.6792 45.0859 42.2443 45.057C41.8141 45.0231 41.3654 45.0237 40.8983 45.0589C40.436 45.0891 39.9665 45.1268 39.4898 45.1722C39.0078 45.2128 38.5254 45.2438 38.0424 45.2654C37.5643 45.2817 37.092 45.2618 36.6255 45.2053C36.1584 45.1391 35.7067 45.0216 35.27 44.8529C34.828 44.6795 34.4095 44.4207 34.0148 44.0764C33.5989 43.7138 33.2972 43.3122 33.1095 42.8718C32.9212 42.4218 32.8286 41.9674 32.8317 41.5091C32.8393 41.0455 32.9336 40.5974 33.1143 40.1648C33.2951 39.7322 33.5484 39.3446 33.8746 39.002C34.1144 38.7501 34.3561 38.5365 34.5996 38.3617C34.8434 38.1868 35.0733 38.0415 35.2895 37.9257C35.5104 37.8051 35.7097 37.7069 35.8876 37.6315C36.0655 37.5559 36.2112 37.4942 36.3247 37.4456L37.7509 38.7863Z" fill="white"/>
<path d="M53.9585 32.1333C53.7327 32.2995 53.4538 32.5114 53.1219 32.769C52.7854 33.0213 52.4185 33.2971 52.0212 33.5965C51.6294 33.8916 51.2205 34.2044 50.7945 34.5348C50.3694 34.8558 49.955 35.1728 49.5512 35.4861C49.1427 35.7941 48.7581 36.0923 48.3975 36.3808C48.0368 36.6694 47.7255 36.9242 47.4631 37.1451L49.4608 39.5041C49.8419 39.9543 50.1817 40.3444 50.4797 40.6749C50.7788 40.9956 51.0398 41.2712 51.2627 41.502C51.4911 41.7285 51.6884 41.913 51.8552 42.0558C52.0273 42.1942 52.1772 42.306 52.3045 42.3915L52.3314 42.4233L50.3397 43.9682L50.3128 43.9366C50.2517 43.7996 50.1655 43.6382 50.0544 43.4527C49.9485 43.2627 49.8034 43.0374 49.6194 42.7767C49.4352 42.5158 49.2075 42.2143 48.936 41.8722C48.6601 41.5248 48.3315 41.1259 47.9504 40.6757L43.5717 35.5047C43.1906 35.0547 42.8532 34.6671 42.5596 34.342C42.2616 34.0117 41.9984 33.7333 41.77 33.5069C41.537 33.2751 41.3347 33.0902 41.1625 32.9518C40.9958 32.809 40.8488 32.6949 40.7214 32.6094L40.6945 32.5776L42.6863 31.0327L42.7132 31.0645C42.7742 31.2015 42.8576 31.3648 42.9633 31.5547C43.0746 31.7405 43.2247 31.9662 43.4133 32.2323C43.603 32.4888 43.8329 32.7929 44.1033 33.1446C44.3748 33.4868 44.701 33.883 45.0822 34.3332L46.8042 36.3666C47.1008 36.154 47.4338 35.9089 47.8036 35.6308C48.1687 35.3475 48.5505 35.0514 48.9489 34.7425C49.3427 34.4282 49.7422 34.1095 50.1471 33.7866C50.5576 33.4596 50.9516 33.1453 51.3288 32.8438C51.707 32.5328 52.0577 32.2432 52.3809 31.9752C52.7093 31.7028 52.9908 31.4668 53.2254 31.2674L51.564 29.3054C51.1828 28.8554 50.8426 28.4699 50.5436 28.1492C50.2456 27.8189 49.9824 27.5404 49.754 27.3141C49.5267 27.0781 49.3267 26.8909 49.1545 26.7525C48.988 26.6097 48.841 26.4956 48.7135 26.4101L48.6866 26.3783L50.6786 24.8334L50.7055 24.8652C50.7663 25.0022 50.8496 25.1655 50.9555 25.3554C51.0669 25.5412 51.217 25.7669 51.4056 26.033C51.5896 26.2937 51.8197 26.598 52.0956 26.9453C52.3671 27.2875 52.6933 27.6837 53.0744 28.1339L57.4531 33.3048C57.8342 33.755 58.1737 34.1451 58.4719 34.4756C58.7655 34.8005 59.0263 35.0763 59.2547 35.3027C59.4831 35.5292 59.6807 35.7137 59.8474 35.8563C60.0196 35.9947 60.1695 36.1067 60.2968 36.1922L60.3237 36.224L58.3319 37.7689L58.305 37.7373C58.244 37.6003 58.1578 37.4389 58.0464 37.2534C57.9407 37.0634 57.7928 36.8402 57.6034 36.5837C57.4192 36.323 57.1914 36.0215 56.9199 35.6794C56.6495 35.3276 56.3237 34.9266 55.9426 34.4764L53.9585 32.1333Z" fill="white"/>
<path d="M62.6465 34.2502C62.6653 34.1192 62.6699 33.9378 62.6601 33.706C62.647 33.4684 62.5892 33.1909 62.487 32.8741C62.3334 32.4141 62.1591 31.8992 61.9641 31.3292C61.7723 30.7504 61.5675 30.147 61.35 29.5194C61.1391 28.8887 60.9184 28.2471 60.6882 27.5951C60.4611 26.934 60.2342 26.2881 60.0072 25.6574C59.7833 25.0175 59.5659 24.405 59.355 23.8199C59.1471 23.2259 58.9553 22.685 58.7794 22.1976C58.6037 21.7101 58.447 21.2896 58.3096 20.9361C58.1753 20.5735 58.0729 20.3024 58.0027 20.1226L59.2154 19.5404L70.8543 27.4041L71.1798 13.7962L72.0869 13.3607L79.3432 23.4659C79.5665 23.7856 79.7676 24.0551 79.9464 24.2743C80.1249 24.4936 80.2859 24.6793 80.4296 24.8317C80.5699 24.9777 80.6926 25.0981 80.7978 25.1923C80.9064 25.2775 81.002 25.346 81.0849 25.3977L81.1039 25.4344L78.6978 26.5896L78.6785 26.5531C78.6752 26.4709 78.6464 26.3473 78.5921 26.1827C78.544 26.0152 78.4641 25.8249 78.3523 25.6115C78.311 25.5324 78.2661 25.4547 78.2184 25.3785C78.1672 25.2964 78.1099 25.2095 78.046 25.1182L72.2446 16.9452L71.9276 29.7941L71.2306 30.0375L60.2323 22.5981C60.7663 24.1489 61.2715 25.5765 61.7478 26.8806C61.9523 27.438 62.1571 27.9957 62.3617 28.5533C62.5629 29.1048 62.7533 29.6197 62.9322 30.0982C63.1176 30.5733 63.2854 30.9923 63.4357 31.355C63.5827 31.7113 63.6993 31.9718 63.7855 32.1364C63.894 32.3435 63.9962 32.5232 64.092 32.6754C64.1876 32.8278 64.2707 32.9558 64.3408 33.0592C64.427 33.1781 64.5053 33.2816 64.5753 33.3699L62.6656 34.2867L62.6465 34.2502Z" fill="white"/>
<path d="M84.4407 24.8468C84.4369 24.698 84.419 24.5177 84.3873 24.3058C84.3556 24.0939 84.3044 23.8344 84.2339 23.5268C84.1635 23.2194 84.0683 22.8589 83.9482 22.4449C83.8259 22.0242 83.6747 21.5376 83.4942 20.9846L81.4222 14.6308C81.2417 14.0778 81.0778 13.5983 80.9306 13.1925C80.7811 12.7801 80.644 12.4283 80.5193 12.1372C80.3924 11.8395 80.279 11.5949 80.1793 11.4033C80.0793 11.2118 79.9867 11.0538 79.9014 10.9293L79.8887 10.8903L82.3259 10.1621L82.3386 10.2012C82.3423 10.35 82.3568 10.5314 82.3817 10.7453C82.4137 10.9571 82.4657 11.22 82.5384 11.5339C82.6156 11.8393 82.7119 12.2033 82.8272 12.6258C82.9473 13.0398 83.0976 13.5233 83.2781 14.0764L85.3501 20.43C85.5306 20.9831 85.6954 21.4658 85.8448 21.8781C85.999 22.282 86.1351 22.6304 86.253 22.9238C86.3777 23.2148 86.4902 23.4563 86.59 23.6478C86.6965 23.8373 86.7926 23.9942 86.8779 24.1188L86.8906 24.1577L84.4534 24.8858L84.4407 24.8468Z" fill="white"/>
<path d="M91.7333 16.2436C92.4428 16.2321 93.0705 16.1251 93.6164 15.9226C94.1677 15.7121 94.6129 15.4108 94.9518 15.0187C95.2962 14.6186 95.5233 14.1264 95.6329 13.5422C95.7495 12.9565 95.7256 12.2728 95.5611 11.491C95.4473 10.9497 95.2848 10.47 95.0732 10.0518C94.8606 9.62698 94.6031 9.28374 94.3012 9.02208C94.0047 8.75239 93.6608 8.56831 93.2696 8.46985C92.8769 8.36469 92.4433 8.35785 91.9685 8.44929C91.6683 8.5071 91.4093 8.5709 91.1916 8.64067C90.9724 8.70374 90.7889 8.76344 90.6407 8.81977C90.4664 8.88814 90.3239 8.9538 90.2137 9.01677L91.7333 16.2436ZM87.8395 8.66057C87.9819 8.64704 88.1313 8.63215 88.2878 8.61595C88.4232 8.60376 88.572 8.58554 88.7338 8.56129C88.9014 8.52901 89.0725 8.49607 89.2471 8.46244C89.5195 8.40999 89.8796 8.30933 90.3279 8.16043C90.7814 8.00351 91.368 7.85578 92.0871 7.71727C92.7572 7.58816 93.395 7.5627 93.9997 7.64088C94.6116 7.71771 95.1649 7.8962 95.6598 8.17634C96.1544 8.45649 96.5719 8.83499 96.9119 9.31182C97.2573 9.78063 97.4997 10.3458 97.6389 11.0073C97.8257 11.8961 97.8023 12.7002 97.5686 13.4196C97.3348 14.1391 96.9495 14.7591 96.4124 15.2797C95.8753 15.8003 95.2172 16.2121 94.4383 16.5152C93.6579 16.8115 92.811 16.9816 91.8976 17.0254L92.2475 18.6893C92.3669 19.2573 92.4785 19.7537 92.5824 20.1787C92.692 20.5957 92.7894 20.9559 92.8751 21.2591C92.9677 21.5612 93.053 21.8123 93.1316 22.0127C93.2171 22.2118 93.2954 22.3774 93.367 22.5098L93.3753 22.5498L90.8619 23.0341L90.8534 22.9939C90.8659 22.8454 90.8676 22.6643 90.8591 22.4505C90.8573 22.2353 90.8381 21.9712 90.8015 21.6586C90.7648 21.3458 90.7092 20.9776 90.6346 20.5539C90.5587 20.1236 90.4609 19.6244 90.3414 19.0564L88.9695 12.5312C88.85 11.9632 88.7391 11.4701 88.6365 11.0518C88.5326 10.6268 88.4343 10.2633 88.3418 9.96134C88.2479 9.65265 88.1582 9.39876 88.0727 9.19969C87.9942 8.99926 87.9193 8.83292 87.848 8.70067L87.8395 8.66057Z" fill="white"/>
<path d="M113.409 20.4121L113.407 20.3712C113.42 20.3365 113.428 20.285 113.432 20.2166C113.436 20.1482 113.436 20.0867 113.434 20.0323C113.423 19.8212 113.38 19.5911 113.304 19.3421C113.234 19.0859 113.105 18.771 112.915 18.3973L111.488 15.6771C111.089 15.6813 110.559 15.6983 109.897 15.7279C109.236 15.7575 108.521 15.7895 107.753 15.8238C107.19 15.849 106.646 15.8734 106.12 15.8969C105.6 15.9202 105.131 15.948 104.712 15.9804L103.617 18.7316C103.522 18.9883 103.422 19.2691 103.316 19.5741C103.209 19.8791 103.164 20.1848 103.179 20.4912C103.183 20.5797 103.194 20.6543 103.211 20.715C103.228 20.7688 103.244 20.8056 103.259 20.8254L103.261 20.8662L101.084 20.9636L101.082 20.9228C101.204 20.7877 101.353 20.5525 101.529 20.217C101.705 19.8748 101.894 19.4501 102.098 18.9429L107.578 5.68833L108.432 5.65012L114.836 17.8712C114.985 18.1579 115.138 18.4377 115.294 18.7105C115.457 18.9762 115.607 19.2151 115.746 19.4272C115.885 19.6394 116.008 19.8181 116.114 19.9634C116.221 20.1088 116.293 20.2011 116.331 20.2403L116.333 20.2812L113.409 20.4121ZM106.216 15.0124C106.628 14.9939 107.052 14.975 107.485 14.9556C107.919 14.9293 108.342 14.907 108.755 14.8885C109.174 14.8629 109.576 14.8415 109.96 14.8243C110.344 14.8003 110.692 14.7779 111.005 14.7571L107.689 8.40596L105.063 15.064L106.216 15.0124Z" fill="white"/>
<path d="M124.105 7.31751C123.27 7.22563 122.512 7.17994 121.831 7.18046C121.151 7.1742 120.562 7.18484 120.064 7.21237C119.486 7.25166 118.967 7.30771 118.506 7.38054L119.012 5.76892C119.096 5.78504 119.222 5.80582 119.391 5.83128C119.56 5.85674 119.747 5.88415 119.951 5.91351C120.163 5.94364 120.381 5.97455 120.607 6.00623C120.84 6.03192 121.059 6.05945 121.263 6.08881C121.469 6.11138 121.649 6.13463 121.803 6.15852C121.966 6.17644 122.083 6.18928 122.154 6.19707L128.213 6.86399C128.284 6.87177 128.397 6.88423 128.553 6.90136C128.717 6.9125 128.901 6.92936 129.106 6.95193C129.312 6.96774 129.529 6.98811 129.755 7.01303C129.989 7.03196 130.209 7.04932 130.415 7.06513C130.628 7.08171 130.82 7.09597 130.991 7.10789C131.162 7.1198 131.29 7.12705 131.375 7.12962L131.485 8.80898C131.047 8.63725 130.551 8.46947 129.997 8.3056C129.519 8.17062 128.948 8.03227 128.284 7.8906C127.621 7.74214 126.871 7.62197 126.037 7.53009L124.871 17.2304C124.802 17.8059 124.749 18.3112 124.711 18.7461C124.681 19.1751 124.658 19.5465 124.641 19.8603C124.632 20.1749 124.633 20.4391 124.643 20.6529C124.66 20.8675 124.681 21.0482 124.707 21.195L124.702 21.2358L122.166 20.9565L122.17 20.916C122.23 20.7784 122.29 20.6067 122.351 20.4006C122.411 20.1946 122.474 19.9374 122.54 19.629C122.606 19.3206 122.671 18.9539 122.737 18.5289C122.803 18.0971 122.871 17.5934 122.94 17.0178L124.105 7.31751Z" fill="white"/>
<path d="M153.692 17.8026C153.906 17.2605 154.085 16.7862 154.23 16.3797C154.378 15.9667 154.496 15.6088 154.585 15.3058C154.677 14.9965 154.745 14.7369 154.79 14.5272C154.834 14.3175 154.863 14.1384 154.876 13.9901L154.891 13.9518L156.67 14.5946L156.655 14.6329C156.562 14.7523 156.457 14.9037 156.339 15.0869C156.228 15.2726 156.099 15.5105 155.954 15.8005C155.819 16.0866 155.66 16.4302 155.48 16.8311C155.308 17.228 155.115 17.6975 154.901 18.2395L152.864 23.4047C152.504 24.3166 152.061 25.0453 151.533 25.5906C151.006 26.1361 150.418 26.528 149.768 26.7668C149.12 26.9992 148.42 27.085 147.668 27.0245C146.913 26.9703 146.132 26.7975 145.326 26.5061C144.52 26.2148 143.802 25.8536 143.173 25.4222C142.55 24.9932 142.057 24.4873 141.694 23.9041C141.339 23.317 141.14 22.6549 141.095 21.9176C141.054 21.1739 141.213 20.3462 141.573 19.4343L143.648 14.1734C143.861 13.6313 144.041 13.157 144.186 12.7505C144.334 12.3375 144.452 11.9796 144.541 11.6766C144.633 11.3673 144.698 11.1065 144.736 10.8944C144.78 10.6847 144.809 10.5056 144.822 10.3573L144.837 10.319L147.235 11.1857L147.22 11.224C147.128 11.3434 147.022 11.4948 146.904 11.678C146.793 11.8637 146.665 12.1015 146.52 12.3916C146.378 12.6753 146.219 13.0188 146.045 13.4221C145.873 13.8191 145.68 14.2885 145.467 14.8306L143.35 20.1967C143.051 20.9557 142.92 21.6259 142.957 22.2074C143.003 22.7851 143.161 23.2906 143.432 23.7234C143.705 24.1502 144.066 24.5099 144.513 24.8029C144.961 25.0958 145.442 25.3349 145.954 25.5202C146.468 25.7055 146.993 25.8299 147.532 25.8934C148.07 25.9566 148.586 25.9135 149.078 25.7638C149.581 25.6101 150.045 25.3299 150.472 24.923C150.908 24.5124 151.276 23.9276 151.575 23.1687L153.692 17.8026Z" fill="white"/>
<path d="M163.03 17.5807L166.416 32.613L170.296 26.447C170.608 25.9508 170.874 25.515 171.093 25.1402C171.316 24.7595 171.5 24.4276 171.644 24.1452C171.793 23.8566 171.905 23.6112 171.983 23.4091C172.066 23.2106 172.128 23.0394 172.168 22.8957L172.191 22.8607L173.82 23.7995L173.798 23.8346C173.684 23.9362 173.555 24.0685 173.41 24.2321C173.266 24.3954 173.095 24.6073 172.898 24.8678C172.705 25.1222 172.484 25.4329 172.237 25.7996C171.993 26.1604 171.715 26.589 171.403 27.0853L165.55 36.3869L165.23 36.2022L161.839 21.1787L158.069 27.1696C157.757 27.6659 157.489 28.1044 157.266 28.4851C157.047 28.8601 156.865 29.1888 156.72 29.4715C156.576 29.7542 156.462 29.9948 156.378 30.1933C156.295 30.392 156.233 30.5631 156.192 30.7069L156.17 30.7419L154.542 29.803L154.563 29.768C154.677 29.6664 154.806 29.5339 154.951 29.3706C155.101 29.2106 155.273 29.0033 155.467 28.7489C155.66 28.4943 155.879 28.1867 156.122 27.8259C156.37 27.4592 156.65 27.0277 156.962 26.5314L160.549 20.8294C160.862 20.3331 161.128 19.8975 161.347 19.5226C161.57 19.1419 161.754 18.8102 161.898 18.5275C162.046 18.239 162.159 17.9937 162.237 17.7916C162.32 17.593 162.382 17.4219 162.422 17.2781L162.445 17.2431L163.03 17.5807Z" fill="white"/>
<path d="M168.972 38.7399C169.099 38.6534 169.245 38.538 169.41 38.3937C169.575 38.2497 169.771 38.0633 169.997 37.8349C170.223 37.6064 170.482 37.3284 170.772 37.0006C171.067 36.6677 171.402 36.2745 171.779 35.8209L176.107 30.611C176.484 30.1575 176.806 29.7584 177.074 29.4139C177.347 29.0638 177.574 28.7577 177.756 28.4953C177.942 28.2275 178.089 28.0003 178.199 27.8137C178.308 27.6272 178.393 27.4651 178.453 27.3277L178.479 27.2957L180.478 28.8163L180.451 28.8483C180.324 28.935 180.176 29.0483 180.005 29.1882C179.84 29.3325 179.642 29.5213 179.411 29.7552C179.191 29.9879 178.93 30.2687 178.63 30.5974C178.339 30.9249 178.006 31.3156 177.629 31.769L173.301 36.9791C172.924 37.4324 172.6 37.8342 172.327 38.1841C172.065 38.533 171.84 38.8366 171.653 39.0948C171.471 39.3572 171.325 39.5816 171.216 39.7682C171.112 39.959 171.03 40.1231 170.971 40.2607L170.944 40.2927L168.945 38.7719L168.972 38.7399Z" fill="white"/>
<path d="M185.758 33.0854L185.728 33.1141C185.693 33.1283 185.647 33.157 185.591 33.2001C185.536 33.2431 185.488 33.2837 185.447 33.322C185.29 33.4705 185.135 33.6549 184.983 33.8759C184.84 34.0966 184.687 34.3993 184.523 34.7838L180.251 45.182L190.997 41.1801C191.26 41.0756 191.545 40.9594 191.854 40.8313C192.162 40.7031 192.43 40.5312 192.658 40.316C192.719 40.2584 192.764 40.2056 192.795 40.1577C192.83 40.1049 192.853 40.0641 192.864 40.0352L192.894 40.0065L194.432 41.4984L194.402 41.5271C194.21 41.5258 193.923 41.5771 193.54 41.6808C193.156 41.7842 192.702 41.9308 192.177 42.1203L178.205 47.0848L177.605 46.5027L182.83 33.768C182.953 33.47 183.064 33.1744 183.161 32.881C183.264 32.5925 183.352 32.3278 183.424 32.0872C183.501 31.842 183.56 31.6326 183.602 31.4595C183.643 31.2863 183.667 31.173 183.672 31.12L183.702 31.0913L185.758 33.0854Z" fill="white"/>
<path d="M196.941 44.7191C197.467 45.407 197.991 46.0871 198.514 46.7597C199.041 47.4379 199.524 48.0583 199.963 48.621C200.407 49.1794 200.792 49.6535 201.116 50.0431C201.44 50.4326 201.671 50.6889 201.809 50.8118L200.354 51.2103C200.267 50.9925 200.151 50.7484 200.006 50.4783C199.881 50.245 199.717 49.9671 199.514 49.6445C199.322 49.323 199.076 48.9673 198.778 48.5766C198.677 48.4446 198.549 48.2891 198.394 48.11C198.25 47.9325 198.107 47.7626 197.965 47.5999C197.802 47.41 197.637 47.2174 197.47 47.0218L192.762 50.3177C193.201 50.8803 193.61 51.3797 193.987 51.8163C194.365 52.2529 194.69 52.6206 194.963 52.9196C195.283 53.2695 195.576 53.5714 195.84 53.8252L194.395 54.4448C194.156 54.029 193.909 53.6068 193.652 53.1786C193.431 52.8092 193.182 52.4137 192.904 51.992C192.631 51.5663 192.354 51.1691 192.073 50.8005L186.667 54.5853C187.163 55.2344 187.648 55.8113 188.121 56.3157C188.595 56.8202 189.025 57.2496 189.411 57.6046C189.853 58.0212 190.278 58.3866 190.686 58.7009L189.106 59.4395C189.061 59.3693 188.991 59.2663 188.896 59.1302C188.801 58.9943 188.693 58.8416 188.573 58.6727C188.457 58.5089 188.332 58.3345 188.199 58.149C188.064 57.9729 187.939 57.8031 187.823 57.6395C187.701 57.48 187.594 57.3349 187.503 57.2044C187.411 57.0834 187.344 56.9952 187.302 56.9401L184.577 53.3752L184.612 53.3511C184.757 53.2996 184.93 53.2253 185.129 53.1279C185.333 53.0362 185.575 52.9089 185.856 52.7458C186.138 52.5827 186.463 52.3798 186.834 52.1373C187.21 51.8908 187.643 51.5964 188.131 51.2545L193.744 47.3248C194.233 46.9827 194.654 46.6795 195.008 46.4148C195.367 46.1463 195.671 45.9085 195.918 45.7014C196.172 45.4903 196.375 45.3058 196.528 45.148C196.685 44.9957 196.811 44.8609 196.907 44.7434L196.941 44.7191Z" fill="white"/>
<path d="M196.103 62.577C195.569 62.8504 195.105 63.0961 194.71 63.3138C194.324 63.5345 193.992 63.7278 193.713 63.8936C193.438 64.0658 193.211 64.2165 193.033 64.3464C192.859 64.482 192.716 64.6018 192.604 64.7052L192.566 64.7247L191.357 62.5611L191.394 62.5418C191.546 62.5104 191.728 62.4597 191.939 62.3902C192.154 62.3265 192.411 62.2298 192.71 62.0998C193.012 61.9758 193.364 61.8186 193.767 61.628C194.173 61.4435 194.645 61.213 195.185 60.9364L201.317 57.7959C201.851 57.5224 202.31 57.2756 202.696 57.0549C203.091 56.8371 203.426 56.6421 203.702 56.4702C203.981 56.3042 204.207 56.1532 204.382 56.0175C204.566 55.8846 204.714 55.7663 204.825 55.6628L204.863 55.6433L205.037 56.0414C205.088 56.162 205.149 56.2929 205.221 56.4344C205.301 56.5787 205.383 56.7259 205.467 56.876C205.598 57.1106 205.803 57.4117 206.081 57.7794C206.369 58.1498 206.686 58.6446 207.033 59.2635C207.355 59.8404 207.571 60.4142 207.68 60.9845C207.792 61.561 207.792 62.1098 207.68 62.6312C207.567 63.1526 207.337 63.6298 206.99 64.063C206.652 64.4988 206.194 64.8648 205.617 65.1607C205.164 65.3923 204.712 65.5506 204.259 65.6358C203.815 65.7237 203.379 65.7459 202.951 65.7024C202.526 65.6649 202.112 65.5677 201.71 65.4107C201.313 65.2503 200.936 65.0378 200.578 64.7729L197.703 70.3153C197.558 70.5905 197.438 70.8375 197.342 71.0568C197.25 71.2817 197.175 71.4864 197.117 71.6711C197.068 71.8583 197.035 72.03 197.017 72.186C197.005 72.3387 197.011 72.4865 197.034 72.6293L196.997 72.6486L195.54 70.0433C195.649 69.9642 195.773 69.8237 195.91 69.6218C196.057 69.4227 196.191 69.2072 196.312 68.9754L199.228 63.3769C199.138 63.2452 199.048 63.1132 198.958 62.9815C198.874 62.8465 198.792 62.707 198.712 62.5627C198.618 62.3944 198.528 62.22 198.443 62.0393C198.362 61.8644 198.288 61.682 198.222 61.4915L196.103 62.577ZM198.957 61.1154C199.01 61.297 199.074 61.4766 199.149 61.6546C199.231 61.8292 199.315 61.9947 199.402 62.1511C199.654 62.6017 199.954 62.978 200.3 63.2799C200.653 63.5785 201.046 63.7831 201.479 63.8936C201.916 64.0101 202.388 64.031 202.896 63.9567C203.41 63.879 203.955 63.6922 204.533 63.3963C205.004 63.1551 205.403 62.8852 205.728 62.587C206.054 62.2886 206.292 61.9697 206.442 61.6303C206.601 61.2938 206.667 60.9351 206.64 60.5547C206.619 60.1711 206.495 59.7749 206.266 59.3661C206.034 58.9515 205.827 58.6322 205.646 58.4084C205.464 58.1845 205.313 58.0223 205.192 57.9218L198.957 61.1154Z" fill="white"/>
<path d="M211.91 75.9196L211.828 75.7087C211.961 75.603 212.103 75.4583 212.252 75.2744C212.403 75.0968 212.526 74.8858 212.621 74.6412C212.725 74.4004 212.783 74.129 212.795 73.8267C212.809 73.5308 212.748 73.2071 212.612 72.8557C212.49 72.5427 212.332 72.2824 212.138 72.0753C211.943 71.8682 211.724 71.7135 211.479 71.6115C211.237 71.516 210.976 71.4706 210.697 71.4754C210.417 71.4802 210.127 71.5359 209.827 71.6429C209.346 71.8138 208.936 72.1055 208.594 72.5178C208.262 72.934 207.958 73.4131 207.682 73.9548C207.406 74.4965 207.143 75.07 206.892 75.6758C206.641 76.2814 206.36 76.861 206.051 77.4146C205.742 77.968 205.383 78.4628 204.975 78.899C204.576 79.3389 204.086 79.6622 203.505 79.8689C203.071 80.0232 202.606 80.1053 202.108 80.1152C201.62 80.129 201.144 80.0473 200.68 79.8706C200.216 79.6939 199.782 79.4083 199.378 79.0138C198.981 78.617 198.656 78.0926 198.403 77.441C198.261 77.0769 198.163 76.7155 198.107 76.3572C198.048 76.0075 198.013 75.6744 198.004 75.3577C198.004 75.0449 198.021 74.7553 198.054 74.489C198.09 74.2291 198.131 74.0109 198.176 73.8348L200.475 73.268L200.568 73.5076C200.282 73.6895 200.026 73.9113 199.801 74.1732C199.582 74.4327 199.408 74.7166 199.277 75.025C199.155 75.3374 199.085 75.6674 199.069 76.0152C199.058 76.3605 199.123 76.7123 199.262 77.07C199.388 77.3958 199.551 77.6688 199.751 77.8887C199.959 78.1127 200.189 78.2853 200.442 78.4063C200.7 78.5252 200.975 78.5874 201.266 78.5931C201.56 78.605 201.857 78.5575 202.157 78.4507C202.577 78.3012 202.936 78.0899 203.233 77.8171C203.536 77.5419 203.801 77.226 204.027 76.8692C204.256 76.5188 204.461 76.1369 204.642 75.7233C204.826 75.3161 205.006 74.8994 205.182 74.4731C205.365 74.0444 205.558 73.6198 205.759 73.1991C205.963 72.7847 206.198 72.3921 206.464 72.0211C206.739 71.6542 207.055 71.3236 207.412 71.0294C207.776 70.7329 208.208 70.4954 208.708 70.3174C209.236 70.1298 209.747 70.057 210.242 70.0991C210.746 70.1451 211.21 70.2745 211.635 70.4871C212.062 70.7061 212.435 70.9915 212.754 71.3435C213.073 71.6955 213.317 72.0885 213.485 72.523C213.609 72.8425 213.697 73.1459 213.748 73.4332C213.798 73.7205 213.828 73.9827 213.836 74.2197C213.847 74.463 213.847 74.6776 213.836 74.8636C213.824 75.0493 213.815 75.2018 213.808 75.3205L211.91 75.9196Z" fill="white"/>
<path d="M201.215 84.4829C201.37 84.4856 201.559 84.4766 201.782 84.4555C202.004 84.4343 202.277 84.3968 202.601 84.3428C202.925 84.289 203.306 84.2136 203.743 84.1169C204.188 84.0183 204.702 83.8949 205.287 83.7467L212.01 82.0426C212.595 81.8944 213.103 81.7587 213.533 81.6356C213.97 81.5108 214.343 81.395 214.653 81.2884C214.969 81.1799 215.229 81.0823 215.433 80.9952C215.638 80.9081 215.807 80.8265 215.94 80.7505L215.982 80.74L216.635 83.1022L216.594 83.1126C216.438 83.1097 216.249 83.1156 216.024 83.13C215.802 83.1512 215.525 83.1897 215.194 83.2452C214.872 83.3057 214.488 83.3819 214.042 83.4738C213.604 83.5706 213.093 83.6933 212.508 83.8415L205.785 85.5454C205.2 85.6938 204.689 85.8303 204.252 85.9551C203.824 86.085 203.454 86.1997 203.143 86.2998C202.833 86.4064 202.577 86.5033 202.372 86.5902C202.17 86.6838 202.002 86.7689 201.868 86.8451L201.827 86.8555L201.173 84.4934L201.215 84.4829Z" fill="white"/>
<path d="M217.677 92.4951C217.555 91.6992 217.406 90.9864 217.231 90.3566C217.062 89.7259 216.9 89.1838 216.744 88.7302C216.556 88.2055 216.365 87.7396 216.174 87.3325L217.931 87.3857C217.936 87.4676 217.948 87.5899 217.965 87.7528C217.983 87.9157 218.003 88.0953 218.026 88.292C218.051 88.4953 218.075 88.7053 218.101 88.922C218.135 89.1446 218.164 89.3542 218.187 89.5508C218.217 89.7464 218.24 89.9187 218.255 90.0682C218.279 90.2234 218.296 90.3346 218.306 90.402L219.192 96.1783C219.203 96.2458 219.218 96.3536 219.24 96.5021C219.273 96.6562 219.301 96.831 219.332 97.0266C219.369 97.2211 219.404 97.4263 219.437 97.6422C219.478 97.8638 219.518 98.0719 219.555 98.2664C219.592 98.4678 219.627 98.649 219.66 98.8098C219.69 98.9706 219.717 99.091 219.736 99.171L218.069 99.7045C218.129 99.2552 218.171 98.7533 218.194 98.199C218.208 97.7218 218.2 97.1579 218.173 96.5073C218.152 95.8557 218.081 95.132 217.959 94.3363L207.865 95.7524C207.266 95.8366 206.742 95.917 206.293 95.9937C205.852 96.0762 205.471 96.1503 205.15 96.216C204.83 96.2885 204.564 96.357 204.35 96.4212C204.138 96.4924 203.961 96.5586 203.819 96.6197L203.777 96.6258L203.407 94.208L203.449 94.2021C203.603 94.2218 203.792 94.2331 204.016 94.2362C204.239 94.2394 204.515 94.2316 204.844 94.213C205.172 94.1946 205.559 94.1608 206.005 94.112C206.458 94.0622 206.984 93.9954 207.583 93.9115L217.677 92.4951Z" fill="white"/>
<path d="M211.901 109.923L208.728 109.893C208.123 109.887 207.592 109.889 207.137 109.899C206.688 109.908 206.299 109.925 205.972 109.949C205.644 109.973 205.369 110.001 205.148 110.033C204.927 110.072 204.741 110.111 204.591 110.151L204.549 110.15L204.574 107.697L204.616 107.697C204.766 107.739 204.95 107.779 205.171 107.815C205.391 107.858 205.665 107.891 205.992 107.914C206.32 107.945 206.708 107.969 207.156 107.987C207.612 108.011 208.142 108.027 208.747 108.032L211.706 108.06L218.248 103.551C218.47 103.396 218.675 103.242 218.861 103.086C219.049 102.938 219.209 102.797 219.347 102.662C219.491 102.527 219.609 102.405 219.703 102.297C219.798 102.189 219.865 102.104 219.909 102.043L219.951 102.044L219.92 105.141C219.756 105.14 219.485 105.202 219.106 105.328C218.734 105.461 218.294 105.699 217.784 106.042L212.954 109.35L217.93 112.679C218.107 112.796 218.287 112.914 218.471 113.032C218.655 113.149 218.833 113.256 219.001 113.354C219.172 113.451 219.327 113.527 219.469 113.583C219.612 113.646 219.732 113.677 219.833 113.678L219.811 115.672L219.769 115.672C219.636 115.52 219.434 115.317 219.165 115.063C218.905 114.808 218.556 114.532 218.117 114.235L211.901 109.923Z" fill="white"/>
<defs>
<linearGradient id="paint0_linear" x1="61.4771" y1="105.969" x2="105.829" y2="119.098" gradientUnits="userSpaceOnUse">
<stop stop-color="#C7DDF2"/>
<stop offset="1" stop-color="#1A7FAD"/>
</linearGradient>
<linearGradient id="paint1_linear" x1="164.085" y1="105.953" x2="119.758" y2="119.121" gradientUnits="userSpaceOnUse">
<stop stop-color="#C7DDF2"/>
<stop offset="1" stop-color="#1A7FAD"/>
</linearGradient>
<linearGradient id="paint2_linear" x1="150.193" y1="90.3204" x2="120.489" y2="114.619" gradientUnits="userSpaceOnUse">
<stop stop-color="#C7DCE9"/>
<stop offset="1" stop-color="#067DBF"/>
</linearGradient>
<linearGradient id="paint3_linear" x1="74.7134" y1="90.3222" x2="104.432" y2="114.618" gradientUnits="userSpaceOnUse">
<stop stop-color="#C7DCE9"/>
<stop offset="1" stop-color="#067DBF"/>
</linearGradient>
</defs>
</svg>
