<svg width="771" height="758" viewBox="0 0 771 758" fill="none" xmlns="http://www.w3.org/2000/svg">
<rect x="254.572" width="725" height="308" rx="25" transform="rotate(44.67 254.572 0)" fill="#50B5FF"/>
<path d="M726.582 483.12C728.136 481.549 730.668 481.534 732.239 483.087L746.616 497.3C753.293 503.9 753.355 514.664 746.755 521.341L731.774 536.495C730.221 538.066 727.689 538.081 726.118 536.528L702.495 513.176C700.924 511.623 700.91 509.09 702.463 507.519L726.582 483.12Z" fill="white" fill-opacity="0.52"/>
<rect x="590.891" y="343.302" width="41.2162" height="42.3086" rx="4" transform="rotate(44.67 590.891 343.302)" fill="white" fill-opacity="0.52"/>
<rect x="493.402" y="457.88" width="41.2162" height="42.3086" rx="4" transform="rotate(44.67 493.402 457.88)" fill="white" fill-opacity="0.52"/>
<rect x="417.693" y="172.081" width="41.2162" height="42.3086" rx="4" transform="rotate(44.67 417.693 172.081)" fill="white" fill-opacity="0.52"/>
<rect x="320.203" y="286.659" width="41.2162" height="42.3086" rx="4" transform="rotate(44.67 320.203 286.659)" fill="white" fill-opacity="0.52"/>
<rect x="694.834" y="446.036" width="41.2162" height="42.3086" rx="4" transform="rotate(44.67 694.834 446.036)" fill="white" fill-opacity="0.52"/>
<rect x="556.201" y="309.054" width="41.2162" height="42.3086" rx="4" transform="rotate(44.67 556.201 309.054)" fill="white" fill-opacity="0.52"/>
<rect x="458.709" y="423.633" width="41.2162" height="42.3086" rx="4" transform="rotate(44.67 458.709 423.633)" fill="white" fill-opacity="0.52"/>
<rect x="383.002" y="137.834" width="41.2162" height="42.3086" rx="4" transform="rotate(44.67 383.002 137.834)" fill="white" fill-opacity="0.52"/>
<rect x="285.514" y="252.412" width="41.2162" height="42.3086" rx="4" transform="rotate(44.67 285.514 252.412)" fill="white" fill-opacity="0.52"/>
<rect x="660.143" y="411.788" width="41.2162" height="42.3086" rx="4" transform="rotate(44.67 660.143 411.788)" fill="white" fill-opacity="0.52"/>
<rect x="562.654" y="526.367" width="41.2162" height="42.3086" rx="4" transform="rotate(44.67 562.654 526.367)" fill="white" fill-opacity="0.52"/>
<rect x="475.713" y="581.392" width="41.22" height="42.3086" rx="4" transform="rotate(44.67 475.713 581.392)" fill="white" fill-opacity="0.52"/>
<rect x="440.865" y="546.944" width="41.22" height="42.3086" rx="4" transform="rotate(44.67 440.865 546.944)" fill="white" fill-opacity="0.52"/>
<rect x="403.174" y="509.684" width="45" height="42" rx="4" transform="rotate(44.67 403.174 509.684)" fill="white" fill-opacity="0.52"/>
<rect x="182.713" y="291.747" width="59" height="42" rx="4" transform="rotate(44.67 182.713 291.747)" fill="white" fill-opacity="0.52"/>
<rect x="229.648" y="338.146" width="236" height="42" rx="4" transform="rotate(44.67 229.648 338.146)" fill="white" fill-opacity="0.52"/>
<path d="M507.748 618.685C509.302 617.114 511.834 617.099 513.405 618.652L544.697 649.585C546.268 651.138 546.282 653.671 544.729 655.242L533.481 666.621L496.5 630.063L507.748 618.685Z" fill="white" fill-opacity="0.52"/>
<path d="M495.094 631.486L532.074 668.043L520.826 679.422C519.273 680.993 516.74 681.007 515.169 679.454L483.878 648.521C482.307 646.968 482.292 644.435 483.845 642.864L495.094 631.486Z" fill="white" fill-opacity="0.52"/>
<rect x="521.525" y="274.808" width="41.2162" height="42.3086" rx="4" transform="rotate(44.67 521.525 274.808)" fill="white" fill-opacity="0.52"/>
<rect x="424.146" y="389.394" width="41.2162" height="42.3086" rx="4" transform="rotate(44.67 424.146 389.394)" fill="white" fill-opacity="0.52"/>
<rect x="348.311" y="103.587" width="41.2162" height="42.3086" rx="4" transform="rotate(44.67 348.311 103.587)" fill="white" fill-opacity="0.52"/>
<rect x="250.953" y="218.173" width="41.2162" height="42.3086" rx="4" transform="rotate(44.67 250.953 218.173)" fill="white" fill-opacity="0.52"/>
<rect x="625.451" y="377.541" width="41.2162" height="42.3086" rx="4" transform="rotate(44.67 625.451 377.541)" fill="white" fill-opacity="0.52"/>
<rect x="528.084" y="492.128" width="41.2162" height="42.3086" rx="4" transform="rotate(44.67 528.084 492.128)" fill="white" fill-opacity="0.52"/>
<rect x="452.256" y="206.32" width="41.2162" height="42.3086" rx="4" transform="rotate(44.67 452.256 206.32)" fill="white" fill-opacity="0.52"/>
<rect x="354.773" y="320.899" width="41.2162" height="42.3086" rx="4" transform="rotate(44.67 354.773 320.899)" fill="white" fill-opacity="0.52"/>
<rect x="486.945" y="240.568" width="41.2162" height="42.3086" rx="4" transform="rotate(44.67 486.945 240.568)" fill="white" fill-opacity="0.52"/>
<rect x="389.459" y="355.146" width="41.2162" height="42.3086" rx="4" transform="rotate(44.67 389.459 355.146)" fill="white" fill-opacity="0.52"/>
<rect x="313.75" y="69.3473" width="41.2162" height="42.3086" rx="4" transform="rotate(44.67 313.75 69.3473)" fill="white" fill-opacity="0.52"/>
<rect x="472.934" y="507.929" width="41.2162" height="41.7171" rx="4" transform="rotate(44.67 472.934 507.929)" fill="white" fill-opacity="0.52"/>
<rect x="299.674" y="336.704" width="41.2162" height="41.7171" rx="4" transform="rotate(44.67 299.674 336.704)" fill="white" fill-opacity="0.52"/>
<rect x="438.244" y="473.682" width="41.2162" height="41.7171" rx="4" transform="rotate(44.67 438.244 473.682)" fill="white" fill-opacity="0.52"/>
<rect x="265.045" y="302.461" width="41.2162" height="41.7171" rx="4" transform="rotate(44.67 265.045 302.461)" fill="white" fill-opacity="0.52"/>
<rect x="403.57" y="439.436" width="41.2162" height="41.7171" rx="4" transform="rotate(44.67 403.57 439.436)" fill="white" fill-opacity="0.52"/>
<rect x="230.363" y="268.214" width="41.2162" height="41.7171" rx="4" transform="rotate(44.67 230.363 268.214)" fill="white" fill-opacity="0.52"/>
<rect x="507.504" y="542.168" width="41.2162" height="41.7171" rx="4" transform="rotate(44.67 507.504 542.168)" fill="white" fill-opacity="0.52"/>
<rect x="334.309" y="370.947" width="41.2162" height="41.7171" rx="4" transform="rotate(44.67 334.309 370.947)" fill="white" fill-opacity="0.52"/>
<rect x="368.99" y="405.195" width="41.2162" height="41.7171" rx="4" transform="rotate(44.67 368.99 405.195)" fill="white" fill-opacity="0.52"/>
<rect x="195.787" y="233.974" width="41.2162" height="41.7171" rx="4" transform="rotate(44.67 195.787 233.974)" fill="white" fill-opacity="0.52"/>
<path d="M75.3578 191.247C76.9109 189.676 79.4435 189.661 81.0146 191.214L104.637 214.566C106.208 216.119 106.223 218.652 104.669 220.223L80.9656 244.201C79.4125 245.773 76.8799 245.787 75.3088 244.234L60.9317 230.022C54.2547 223.421 54.1927 212.657 60.7933 205.98L75.3578 191.247Z" fill="white" fill-opacity="0.52"/>
<rect x="147.162" y="258.01" width="41.2162" height="41.7171" rx="4" transform="rotate(44.67 147.162 258.01)" fill="white" fill-opacity="0.52"/>
<rect x="113.018" y="222.851" width="41.2162" height="41.7171" rx="4" transform="rotate(44.67 113.018 222.851)" fill="white" fill-opacity="0.52"/>
<rect x="216.258" y="183.926" width="41.2162" height="42.3086" rx="4" transform="rotate(44.67 216.258 183.926)" fill="white" fill-opacity="0.52"/>
<rect x="634.953" y="457.225" width="41.2162" height="42.3086" rx="4" transform="rotate(44.67 634.953 457.225)" fill="white" fill-opacity="0.52"/>
<rect x="496.449" y="320.251" width="41.2162" height="42.3086" rx="4" transform="rotate(44.67 496.449 320.251)" fill="white" fill-opacity="0.52"/>
<rect x="323.24" y="149.03" width="41.2162" height="42.3086" rx="4" transform="rotate(44.67 323.24 149.03)" fill="white" fill-opacity="0.52"/>
<rect x="600.283" y="422.978" width="41.2162" height="42.3086" rx="4" transform="rotate(44.67 600.283 422.978)" fill="white" fill-opacity="0.52"/>
<rect x="461.758" y="286.004" width="41.2162" height="42.3086" rx="4" transform="rotate(44.67 461.758 286.004)" fill="white" fill-opacity="0.52"/>
<rect x="288.561" y="114.783" width="41.2162" height="42.3086" rx="4" transform="rotate(44.67 288.561 114.783)" fill="white" fill-opacity="0.52"/>
<rect x="565.703" y="388.738" width="41.2162" height="42.3086" rx="4" transform="rotate(44.67 565.703 388.738)" fill="white" fill-opacity="0.52"/>
<rect x="427.078" y="251.757" width="41.2162" height="42.3086" rx="4" transform="rotate(44.67 427.078 251.757)" fill="white" fill-opacity="0.52"/>
<rect x="253.875" y="80.5367" width="41.2162" height="42.3086" rx="4" transform="rotate(44.67 253.875 80.5367)" fill="white" fill-opacity="0.52"/>
<rect x="531.014" y="354.491" width="41.2162" height="42.3086" rx="4" transform="rotate(44.67 531.014 354.491)" fill="white" fill-opacity="0.52"/>
<rect x="357.82" y="183.271" width="41.2162" height="42.3086" rx="4" transform="rotate(44.67 357.82 183.271)" fill="white" fill-opacity="0.52"/>
<rect x="392.506" y="217.517" width="41.2162" height="42.3086" rx="4" transform="rotate(44.67 392.506 217.517)" fill="white" fill-opacity="0.52"/>
<rect x="219.303" y="46.2966" width="41.2162" height="42.3086" rx="4" transform="rotate(44.67 219.303 46.2966)" fill="white" fill-opacity="0.52"/>
<rect x="659.092" y="551.394" width="41.2162" height="42.3086" rx="4" transform="rotate(44.67 659.092 551.394)" fill="white" fill-opacity="0.52"/>
<rect x="520.586" y="414.421" width="41.2162" height="42.3086" rx="4" transform="rotate(44.67 520.586 414.421)" fill="white" fill-opacity="0.52"/>
<rect x="347.379" y="243.2" width="41.2162" height="42.3086" rx="4" transform="rotate(44.67 347.379 243.2)" fill="white" fill-opacity="0.52"/>
<rect x="624.422" y="517.148" width="41.2162" height="42.3086" rx="4" transform="rotate(44.67 624.422 517.148)" fill="white" fill-opacity="0.52"/>
<rect x="485.896" y="380.173" width="41.2162" height="42.3086" rx="4" transform="rotate(44.67 485.896 380.173)" fill="white" fill-opacity="0.52"/>
<rect x="312.697" y="208.953" width="41.2162" height="42.3086" rx="4" transform="rotate(44.67 312.697 208.953)" fill="white" fill-opacity="0.52"/>
<rect x="589.84" y="482.907" width="41.2162" height="42.3086" rx="4" transform="rotate(44.67 589.84 482.907)" fill="white" fill-opacity="0.52"/>
<rect x="451.213" y="345.927" width="41.2162" height="42.3086" rx="4" transform="rotate(44.67 451.213 345.927)" fill="white" fill-opacity="0.52"/>
<rect x="278.014" y="174.706" width="41.2162" height="42.3086" rx="4" transform="rotate(44.67 278.014 174.706)" fill="white" fill-opacity="0.52"/>
<rect x="555.148" y="448.66" width="41.2162" height="42.3086" rx="4" transform="rotate(44.67 555.148 448.66)" fill="white" fill-opacity="0.52"/>
<rect x="381.955" y="277.44" width="41.2162" height="42.3086" rx="4" transform="rotate(44.67 381.955 277.44)" fill="white" fill-opacity="0.52"/>
<rect x="416.643" y="311.687" width="41.2162" height="42.3086" rx="4" transform="rotate(44.67 416.643 311.687)" fill="white" fill-opacity="0.52"/>
<rect x="243.438" y="140.466" width="41.2162" height="42.3086" rx="4" transform="rotate(44.67 243.438 140.466)" fill="white" fill-opacity="0.52"/>
<path d="M242.447 22.8232C249.048 16.1461 259.811 16.0842 266.488 22.6847L305.514 61.2631C307.085 62.8162 307.099 65.3488 305.546 66.9199L281.427 91.319C279.873 92.8901 277.341 92.9047 275.77 91.3516L227.499 43.6339C225.928 42.0808 225.914 39.5482 227.467 37.9771L242.447 22.8232Z" fill="white" fill-opacity="0.52"/>
<path d="M550.418 660.866C551.971 659.295 554.504 659.28 556.075 660.833L579.7 684.188C581.271 685.741 581.286 688.274 579.733 689.845L564.969 704.779C558.369 711.456 547.605 711.518 540.928 704.918L526.548 690.702C524.977 689.149 524.963 686.617 526.516 685.046L550.418 660.866Z" fill="white" fill-opacity="0.52"/>
<path d="M666.842 494.316C668.395 492.745 670.928 492.731 672.499 494.284L720.77 542.002C722.341 543.555 722.355 546.087 720.802 547.658L696.682 572.057C695.129 573.629 692.597 573.643 691.026 572.09L642.755 524.372C641.184 522.819 641.169 520.287 642.723 518.716L666.842 494.316Z" fill="white" fill-opacity="0.52"/>
<path d="M594.534 563.459C596.087 561.888 598.619 561.873 600.19 563.426L650.46 613.12C652.031 614.673 652.045 617.206 650.492 618.777L626.373 643.176C624.819 644.747 622.287 644.761 620.716 643.208L570.447 593.515C568.875 591.962 568.861 589.429 570.414 587.858L594.534 563.459Z" fill="white" fill-opacity="0.52"/>
<path d="M181.288 84.6965C182.841 83.1254 185.373 83.1108 186.944 84.6639L235.215 132.382C236.786 133.935 236.8 136.467 235.247 138.038L211.128 162.437C209.575 164.009 207.042 164.023 205.471 162.47L157.2 114.752C155.629 113.199 155.615 110.667 157.168 109.096L181.288 84.6965Z" fill="white" fill-opacity="0.52"/>
<path d="M146.204 120.26C147.757 118.689 150.289 118.674 151.86 120.227L208.125 175.848C209.696 177.401 209.711 179.933 208.158 181.504L184.038 205.904C182.485 207.475 179.952 207.489 178.381 205.936L122.116 150.316C120.545 148.763 120.531 146.23 122.084 144.659L146.204 120.26Z" fill="white" fill-opacity="0.52"/>
<path d="M110.985 155.815C112.538 154.244 115.07 154.229 116.642 155.783L187.562 225.891C189.133 227.444 189.148 229.977 187.595 231.548L163.475 255.947C161.922 257.518 159.389 257.532 157.818 255.979L86.8977 185.871C85.3266 184.318 85.312 181.785 86.8651 180.214L110.985 155.815Z" fill="white" fill-opacity="0.52"/>
<path d="M538.67 578.6C540.223 577.029 542.756 577.014 544.327 578.567L615.248 648.676C616.819 650.229 616.833 652.761 615.28 654.333L591.161 678.732C589.608 680.303 587.075 680.317 585.504 678.764L514.583 608.656C513.012 607.103 512.998 604.57 514.551 602.999L538.67 578.6Z" fill="white" fill-opacity="0.52"/>
<circle cx="149.229" cy="125.767" r="2.5" transform="rotate(44.67 149.229 125.767)" fill="white" fill-opacity="0.79"/>
<path d="M183.737 481.727C205.844 459.995 234.165 457.997 245.561 459.714H257.271L296.613 502.335C298.174 515.45 294.552 542.802 267.575 547.298C240.597 551.795 218.865 586.017 211.371 602.566C211.371 570.717 257.739 541.678 260.549 527.159C262.797 515.543 246.03 516.848 245.561 523.412C241.065 559.757 209.029 578.523 193.573 583.363C225.047 566.127 233.228 528.72 233.384 512.171C223.642 524.161 196.227 536.838 183.737 541.678C202.472 532.685 221.207 515.287 225.89 504.202C192.543 509.073 144.863 532.623 127.534 547.298C145.894 526.316 200.13 502.797 212.776 492.493C170.623 508.417 132.53 514.669 123.318 512.171C167.157 510.298 200.286 486.411 211.371 474.702C202.378 469.081 189.202 477.044 183.737 481.727Z" fill="url(#paint0_linear)"/>
<rect x="329.484" y="357.135" width="96.9718" height="138.637" rx="10" transform="rotate(44.67 329.484 357.135)" fill="#3285C0"/>
<g filter="url(#filter0_f)">
<ellipse cx="243.548" cy="387.572" rx="67.5067" ry="5.62037" transform="rotate(34.1176 243.548 387.572)" fill="#127FCE"/>
</g>
<g filter="url(#filter1_f)">
<ellipse cx="380.268" cy="519.676" rx="60.9127" ry="5.62037" transform="rotate(51.3296 380.268 519.676)" fill="#127FCE"/>
</g>
<g filter="url(#filter2_f)">
<path d="M611.513 147.589C613.158 227.79 515.511 583.158 478.342 712.587C600.116 662.004 652.573 297.616 611.513 147.589Z" fill="#127FCE"/>
</g>
<g filter="url(#filter3_f)">
<path d="M51.6699 289.186C130.776 275.876 494.275 151.955 598.72 151.955C490.059 109.802 133.634 175.841 51.6699 289.186Z" fill="#127FCE"/>
</g>
<path d="M278.832 409.798C303.133 408.381 350.912 419.532 347.624 475.473L278.832 409.798Z" fill="#5B5B5B" fill-opacity="0.24"/>
<path d="M40.7675 288.02C200.391 140.236 491.102 132.022 607.263 140.039C616.824 140.699 624.228 148.104 624.888 157.664C632.906 273.826 624.691 564.536 476.907 724.16C465.176 736.831 444.752 727.58 443.113 710.39C434.61 621.245 393.846 520.178 320.994 443.933C244.749 371.081 143.682 330.317 54.5375 321.815C37.3478 320.175 28.0965 299.751 40.7675 288.02Z" fill="url(#paint1_linear)"/>
<path d="M118.937 281.786C263.336 178.359 499.611 168.326 586.641 175.475C589.507 175.71 591.651 177.86 591.877 180.726C598.695 267.365 580.153 494.66 478.922 637.677C475.574 642.408 468.027 639.86 467.628 634.078C462.594 561.039 416.171 477.235 354.583 412.777C289.993 351.062 197.052 298.85 122.55 293.104C116.798 292.661 114.247 285.145 118.937 281.786Z" stroke="white" stroke-opacity="0.87" stroke-width="8"/>
<path d="M590.268 177.282L348.592 407.249C444.138 499.423 468.649 607.397 468.962 649.862C582.119 503.358 596.982 273.765 590.268 177.282Z" fill="url(#paint2_linear)"/>
<path d="M348.592 408.187L592.142 175.878" stroke="white" stroke-width="8"/>
<path d="M590.344 176.346C331.432 159.859 161.166 245.976 108.396 291.095C204.318 294.467 309.794 369.624 350.541 406.781L590.344 176.346Z" fill="url(#paint3_linear)"/>
<defs>
<filter id="filter0_f" x="169.508" y="330.055" width="148.081" height="115.034" filterUnits="userSpaceOnUse" color-interpolation-filters="sRGB">
<feFlood flood-opacity="0" result="BackgroundImageFix"/>
<feBlend mode="normal" in="SourceGraphic" in2="BackgroundImageFix" result="shape"/>
<feGaussianBlur stdDeviation="7.5" result="effect1_foregroundBlur"/>
</filter>
<filter id="filter1_f" x="322.82" y="453.606" width="114.898" height="132.139" filterUnits="userSpaceOnUse" color-interpolation-filters="sRGB">
<feFlood flood-opacity="0" result="BackgroundImageFix"/>
<feBlend mode="normal" in="SourceGraphic" in2="BackgroundImageFix" result="shape"/>
<feGaussianBlur stdDeviation="7.5" result="effect1_foregroundBlur"/>
</filter>
<filter id="filter2_f" x="438.342" y="103.599" width="232.006" height="653.643" filterUnits="userSpaceOnUse" color-interpolation-filters="sRGB">
<feFlood flood-opacity="0" result="BackgroundImageFix"/>
<feBlend mode="normal" in="SourceGraphic" in2="BackgroundImageFix" result="shape"/>
<feGaussianBlur stdDeviation="20" result="effect1_foregroundBlur"/>
</filter>
<filter id="filter3_f" x="0.251953" y="84.7955" width="646.863" height="244.39" filterUnits="userSpaceOnUse" color-interpolation-filters="sRGB">
<feFlood flood-opacity="0" result="BackgroundImageFix"/>
<feBlend mode="normal" in="SourceGraphic" in2="BackgroundImageFix" result="shape"/>
<feGaussianBlur stdDeviation="20" result="effect1_foregroundBlur"/>
</filter>
<linearGradient id="paint0_linear" x1="271.79" y1="482.189" x2="151.42" y2="587.103" gradientUnits="userSpaceOnUse">
<stop stop-color="#FF8744"/>
<stop offset="1" stop-color="#FFD66B"/>
</linearGradient>
<linearGradient id="paint1_linear" x1="621.685" y1="144.648" x2="196.878" y2="553.999" gradientUnits="userSpaceOnUse">
<stop stop-color="#50B5FF"/>
<stop offset="1" stop-color="#119BFF"/>
</linearGradient>
<linearGradient id="paint2_linear" x1="575.281" y1="218.498" x2="470.109" y2="649.862" gradientUnits="userSpaceOnUse">
<stop stop-color="white" stop-opacity="0.46"/>
<stop offset="1" stop-color="white" stop-opacity="0.06"/>
</linearGradient>
<linearGradient id="paint3_linear" x1="565.989" y1="188.055" x2="140.714" y2="283.602" gradientUnits="userSpaceOnUse">
<stop stop-color="white" stop-opacity="0.46"/>
<stop offset="1" stop-color="white" stop-opacity="0.06"/>
</linearGradient>
</defs>
</svg>
