<svg width="1920" height="1080" viewBox="0 0 1920 1080" fill="none" xmlns="http://www.w3.org/2000/svg">
<g filter="url(#filter0_f)">
<path d="M1619.67 697.905L1405 856L1640.06 717.792C1660.45 698.9 1630.47 689.951 1619.67 697.905Z" fill="white"/>
</g>
<g filter="url(#filter1_f)">
<path d="M455.674 163.905L241 322L476.062 183.792C496.45 164.9 466.468 155.951 455.674 163.905Z" fill="white"/>
</g>
<g filter="url(#filter2_f)">
<path d="M1800.67 227.905L1586 386L1821.06 247.792C1841.45 228.9 1811.47 219.951 1800.67 227.905Z" fill="white"/>
</g>
<g filter="url(#filter3_f)">
<path d="M246.674 512.905L32 671L267.062 532.792C287.45 513.9 257.468 504.951 246.674 512.905Z" fill="white"/>
</g>
<g filter="url(#filter4_f)">
<path d="M442.674 861.905L228 1020L463.062 881.792C483.45 862.9 453.468 853.951 442.674 861.905Z" fill="white"/>
</g>
<g filter="url(#filter5_f)">
<path d="M1250.67 95.9054L1036 254L1271.06 115.792C1291.45 96.8995 1261.47 87.9511 1250.67 95.9054Z" fill="white"/>
</g>
<g filter="url(#filter6_f)">
<path d="M914.674 420.905L700 579L935.062 440.792C955.45 421.9 925.468 412.951 914.674 420.905Z" fill="white"/>
</g>
<g filter="url(#filter7_f)">
<path d="M1145.67 761.905L931 920L1166.06 781.792C1186.45 762.9 1156.47 753.951 1145.67 761.905Z" fill="white"/>
</g>
<g filter="url(#filter8_f)">
<path d="M226.5 143L231.552 158.547H247.899L234.674 168.156L239.725 183.703L226.5 174.094L213.275 183.703L218.326 168.156L205.101 158.547H221.448L226.5 143Z" fill="white"/>
</g>
<g filter="url(#filter9_f)">
<path d="M1579.5 214L1584.55 229.547H1600.9L1587.67 239.156L1592.73 254.703L1579.5 245.094L1566.27 254.703L1571.33 239.156L1558.1 229.547H1574.45L1579.5 214Z" fill="white"/>
</g>
<g filter="url(#filter10_f)">
<path d="M1503.5 534L1508.55 549.547H1524.9L1511.67 559.156L1516.73 574.703L1503.5 565.094L1490.27 574.703L1495.33 559.156L1482.1 549.547H1498.45L1503.5 534Z" fill="white"/>
</g>
<g filter="url(#filter11_f)">
<path d="M1758.5 676L1763.55 691.547H1779.9L1766.67 701.156L1771.73 716.703L1758.5 707.094L1745.27 716.703L1750.33 701.156L1737.1 691.547H1753.45L1758.5 676Z" fill="white"/>
</g>
<g filter="url(#filter12_f)">
<path d="M544.5 288L549.552 303.547H565.899L552.674 313.156L557.725 328.703L544.5 319.094L531.275 328.703L536.326 313.156L523.101 303.547H539.448L544.5 288Z" fill="white"/>
</g>
<g filter="url(#filter13_f)">
<path d="M263.5 736L268.552 751.547H284.899L271.674 761.156L276.725 776.703L263.5 767.094L250.275 776.703L255.326 761.156L242.101 751.547H258.448L263.5 736Z" fill="white"/>
</g>
<g filter="url(#filter14_f)">
<path d="M1663.5 949L1668.55 964.547H1684.9L1671.67 974.156L1676.73 989.703L1663.5 980.094L1650.27 989.703L1655.33 974.156L1642.1 964.547H1658.45L1663.5 949Z" fill="white"/>
</g>
<g filter="url(#filter15_f)">
<path d="M608.5 714L613.552 729.547H629.899L616.674 739.156L621.725 754.703L608.5 745.094L595.275 754.703L600.326 739.156L587.101 729.547H603.448L608.5 714Z" fill="white"/>
</g>
<g filter="url(#filter16_f)">
<path d="M122.5 366L127.552 381.547H143.899L130.674 391.156L135.725 406.703L122.5 397.094L109.275 406.703L114.326 391.156L101.101 381.547H117.448L122.5 366Z" fill="white"/>
</g>
<g filter="url(#filter17_f)">
<path d="M1269.5 261L1274.55 276.547H1290.9L1277.67 286.156L1282.73 301.703L1269.5 292.094L1256.27 301.703L1261.33 286.156L1248.1 276.547H1264.45L1269.5 261Z" fill="white"/>
</g>
<g filter="url(#filter18_f)">
<path d="M843.5 98L848.552 113.547H864.899L851.674 123.156L856.725 138.703L843.5 129.094L830.275 138.703L835.326 123.156L822.101 113.547H838.448L843.5 98Z" fill="white"/>
</g>
<g filter="url(#filter19_f)">
<path d="M1074.5 534L1079.55 549.547H1095.9L1082.67 559.156L1087.73 574.703L1074.5 565.094L1061.27 574.703L1066.33 559.156L1053.1 549.547H1069.45L1074.5 534Z" fill="white"/>
</g>
<defs>
<filter id="filter0_f" x="1392" y="682" width="268" height="187" filterUnits="userSpaceOnUse" color-interpolation-filters="sRGB">
<feFlood flood-opacity="0" result="BackgroundImageFix"/>
<feBlend mode="normal" in="SourceGraphic" in2="BackgroundImageFix" result="shape"/>
<feGaussianBlur stdDeviation="6.5" result="effect1_foregroundBlur"/>
</filter>
<filter id="filter1_f" x="226" y="146" width="272" height="191" filterUnits="userSpaceOnUse" color-interpolation-filters="sRGB">
<feFlood flood-opacity="0" result="BackgroundImageFix"/>
<feBlend mode="normal" in="SourceGraphic" in2="BackgroundImageFix" result="shape"/>
<feGaussianBlur stdDeviation="7.5" result="effect1_foregroundBlur"/>
</filter>
<filter id="filter2_f" x="1571" y="210" width="272" height="191" filterUnits="userSpaceOnUse" color-interpolation-filters="sRGB">
<feFlood flood-opacity="0" result="BackgroundImageFix"/>
<feBlend mode="normal" in="SourceGraphic" in2="BackgroundImageFix" result="shape"/>
<feGaussianBlur stdDeviation="7.5" result="effect1_foregroundBlur"/>
</filter>
<filter id="filter3_f" x="17" y="495" width="272" height="191" filterUnits="userSpaceOnUse" color-interpolation-filters="sRGB">
<feFlood flood-opacity="0" result="BackgroundImageFix"/>
<feBlend mode="normal" in="SourceGraphic" in2="BackgroundImageFix" result="shape"/>
<feGaussianBlur stdDeviation="7.5" result="effect1_foregroundBlur"/>
</filter>
<filter id="filter4_f" x="213" y="844" width="272" height="191" filterUnits="userSpaceOnUse" color-interpolation-filters="sRGB">
<feFlood flood-opacity="0" result="BackgroundImageFix"/>
<feBlend mode="normal" in="SourceGraphic" in2="BackgroundImageFix" result="shape"/>
<feGaussianBlur stdDeviation="7.5" result="effect1_foregroundBlur"/>
</filter>
<filter id="filter5_f" x="1021" y="78" width="272" height="191" filterUnits="userSpaceOnUse" color-interpolation-filters="sRGB">
<feFlood flood-opacity="0" result="BackgroundImageFix"/>
<feBlend mode="normal" in="SourceGraphic" in2="BackgroundImageFix" result="shape"/>
<feGaussianBlur stdDeviation="7.5" result="effect1_foregroundBlur"/>
</filter>
<filter id="filter6_f" x="685" y="403" width="272" height="191" filterUnits="userSpaceOnUse" color-interpolation-filters="sRGB">
<feFlood flood-opacity="0" result="BackgroundImageFix"/>
<feBlend mode="normal" in="SourceGraphic" in2="BackgroundImageFix" result="shape"/>
<feGaussianBlur stdDeviation="7.5" result="effect1_foregroundBlur"/>
</filter>
<filter id="filter7_f" x="916" y="744" width="272" height="191" filterUnits="userSpaceOnUse" color-interpolation-filters="sRGB">
<feFlood flood-opacity="0" result="BackgroundImageFix"/>
<feBlend mode="normal" in="SourceGraphic" in2="BackgroundImageFix" result="shape"/>
<feGaussianBlur stdDeviation="7.5" result="effect1_foregroundBlur"/>
</filter>
<filter id="filter8_f" x="190.101" y="128" width="72.7975" height="70.7029" filterUnits="userSpaceOnUse" color-interpolation-filters="sRGB">
<feFlood flood-opacity="0" result="BackgroundImageFix"/>
<feBlend mode="normal" in="SourceGraphic" in2="BackgroundImageFix" result="shape"/>
<feGaussianBlur stdDeviation="7.5" result="effect1_foregroundBlur"/>
</filter>
<filter id="filter9_f" x="1543.1" y="199" width="72.7975" height="70.7029" filterUnits="userSpaceOnUse" color-interpolation-filters="sRGB">
<feFlood flood-opacity="0" result="BackgroundImageFix"/>
<feBlend mode="normal" in="SourceGraphic" in2="BackgroundImageFix" result="shape"/>
<feGaussianBlur stdDeviation="7.5" result="effect1_foregroundBlur"/>
</filter>
<filter id="filter10_f" x="1467.1" y="519" width="72.7975" height="70.7029" filterUnits="userSpaceOnUse" color-interpolation-filters="sRGB">
<feFlood flood-opacity="0" result="BackgroundImageFix"/>
<feBlend mode="normal" in="SourceGraphic" in2="BackgroundImageFix" result="shape"/>
<feGaussianBlur stdDeviation="7.5" result="effect1_foregroundBlur"/>
</filter>
<filter id="filter11_f" x="1722.1" y="661" width="72.7975" height="70.7029" filterUnits="userSpaceOnUse" color-interpolation-filters="sRGB">
<feFlood flood-opacity="0" result="BackgroundImageFix"/>
<feBlend mode="normal" in="SourceGraphic" in2="BackgroundImageFix" result="shape"/>
<feGaussianBlur stdDeviation="7.5" result="effect1_foregroundBlur"/>
</filter>
<filter id="filter12_f" x="508.101" y="273" width="72.7975" height="70.7029" filterUnits="userSpaceOnUse" color-interpolation-filters="sRGB">
<feFlood flood-opacity="0" result="BackgroundImageFix"/>
<feBlend mode="normal" in="SourceGraphic" in2="BackgroundImageFix" result="shape"/>
<feGaussianBlur stdDeviation="7.5" result="effect1_foregroundBlur"/>
</filter>
<filter id="filter13_f" x="227.101" y="721" width="72.7975" height="70.7029" filterUnits="userSpaceOnUse" color-interpolation-filters="sRGB">
<feFlood flood-opacity="0" result="BackgroundImageFix"/>
<feBlend mode="normal" in="SourceGraphic" in2="BackgroundImageFix" result="shape"/>
<feGaussianBlur stdDeviation="7.5" result="effect1_foregroundBlur"/>
</filter>
<filter id="filter14_f" x="1627.1" y="934" width="72.7975" height="70.7029" filterUnits="userSpaceOnUse" color-interpolation-filters="sRGB">
<feFlood flood-opacity="0" result="BackgroundImageFix"/>
<feBlend mode="normal" in="SourceGraphic" in2="BackgroundImageFix" result="shape"/>
<feGaussianBlur stdDeviation="7.5" result="effect1_foregroundBlur"/>
</filter>
<filter id="filter15_f" x="572.101" y="699" width="72.7975" height="70.7029" filterUnits="userSpaceOnUse" color-interpolation-filters="sRGB">
<feFlood flood-opacity="0" result="BackgroundImageFix"/>
<feBlend mode="normal" in="SourceGraphic" in2="BackgroundImageFix" result="shape"/>
<feGaussianBlur stdDeviation="7.5" result="effect1_foregroundBlur"/>
</filter>
<filter id="filter16_f" x="86.1012" y="351" width="72.7975" height="70.7029" filterUnits="userSpaceOnUse" color-interpolation-filters="sRGB">
<feFlood flood-opacity="0" result="BackgroundImageFix"/>
<feBlend mode="normal" in="SourceGraphic" in2="BackgroundImageFix" result="shape"/>
<feGaussianBlur stdDeviation="7.5" result="effect1_foregroundBlur"/>
</filter>
<filter id="filter17_f" x="1233.1" y="246" width="72.7975" height="70.7029" filterUnits="userSpaceOnUse" color-interpolation-filters="sRGB">
<feFlood flood-opacity="0" result="BackgroundImageFix"/>
<feBlend mode="normal" in="SourceGraphic" in2="BackgroundImageFix" result="shape"/>
<feGaussianBlur stdDeviation="7.5" result="effect1_foregroundBlur"/>
</filter>
<filter id="filter18_f" x="807.101" y="83" width="72.7975" height="70.7029" filterUnits="userSpaceOnUse" color-interpolation-filters="sRGB">
<feFlood flood-opacity="0" result="BackgroundImageFix"/>
<feBlend mode="normal" in="SourceGraphic" in2="BackgroundImageFix" result="shape"/>
<feGaussianBlur stdDeviation="7.5" result="effect1_foregroundBlur"/>
</filter>
<filter id="filter19_f" x="1038.1" y="519" width="72.7975" height="70.7029" filterUnits="userSpaceOnUse" color-interpolation-filters="sRGB">
<feFlood flood-opacity="0" result="BackgroundImageFix"/>
<feBlend mode="normal" in="SourceGraphic" in2="BackgroundImageFix" result="shape"/>
<feGaussianBlur stdDeviation="7.5" result="effect1_foregroundBlur"/>
</filter>
</defs>
</svg>
